<svg xmlns="http://www.w3.org/2000/svg" xmlns:xlink="http://www.w3.org/1999/xlink" x="0px" y="0px"
	 viewBox="0 0 47.8 79.2" style="enable-background:new 0 0 47.8 79.2;" xml:space="preserve">
<g>
	<path d="M23.6,34.5c0.4,0,0.8,0,1.2,0c3.7,0,7.1-1.4,9.4-3.9c4.5-4.8,3.1-11.8-0.5-16.3c-0.7-0.8-1.3-1.5-1.9-2.2
		c-3-3.3-4.6-5.1-2.7-9.7c0.3-0.6,0.1-1.3-0.3-1.8c-0.4-0.5-1.1-0.7-1.7-0.5c-5.6,1.7-7.8,5.4-6.8,10.9c0.1,0.3,0.2,0.7,0.3,1.1
		c0.6,2.3,0.5,2.8-0.1,3c0,0-0.1,0-0.3-0.1c-0.7-0.5-1.3-2-1.2-2.8c0.1-0.6-0.2-1.2-0.7-1.5c-0.5-0.4-1.1-0.4-1.7-0.2
		c-2,0.9-3.8,3.4-4.7,6.6c-1.2,4.1-0.6,8.4,1.6,11.7C15.6,32,19.4,34.2,23.6,34.5z M15,18c0.3-1,0.7-1.9,1.1-2.6
		c0.5,1,1.1,1.8,1.8,2.4c1.1,0.8,2.4,1,3.6,0.5c3.5-1.4,2.6-5.1,2.1-6.9c-0.1-0.3-0.2-0.6-0.2-0.9C22.9,8,23.3,6.2,24.8,5
		c-0.4,4.1,1.9,6.7,4.4,9.4c0.6,0.7,1.2,1.4,1.8,2.1c2.6,3.2,3.8,8.4,0.6,11.8c-1.9,2-4.7,3.1-7.8,2.8c-3.2-0.2-6-1.8-7.6-4.2
		C13.9,23.4,14.6,19.5,15,18z" fill="#f7ce3e"/>
	<path d="M24.5,30c0.2,0,0.4,0,0.6,0c2,0,4.2-0.9,5.1-3c1.3-3.2,0.4-6.7-2.7-10.2c-0.5-0.5-1.2-0.7-1.8-0.5
		c-0.7,0.2-1.1,0.8-1.1,1.5c0,1.5-0.9,2.4-2,3.5c-1.2,1.3-2.8,2.9-2.2,5.5C20.7,28.5,22.3,29.8,24.5,30z M25,23.6
		c0.6-0.6,1.2-1.3,1.8-2.1c0.7,1.5,0.8,2.9,0.3,4.1c-0.3,0.7-1.4,1-2.2,0.9s-1.2-0.4-1.2-0.5l0,0C23.4,25.3,23.8,24.8,25,23.6z" fill="#f7ce3e"/>
	<path d="M1.8,79.2h6h2.5h27.3h2.5h6c0.9,0,1.7-0.8,1.7-1.7s-0.8-1.7-1.7-1.7h-4.8l-9-28.9h4c0.9,0,1.7-0.8,1.7-1.7v-5.9
		c0-0.9-0.8-1.7-1.7-1.7h-3.5V36c0-0.9-0.8-1.7-1.7-1.7s-1.7,0.8-1.7,1.7v1.7h-11V36c0-0.9-0.8-1.7-1.7-1.7S15,35.1,15,36v1.7h-3.5
		c-0.9,0-1.7,0.8-1.7,1.7v5.9c0,0.9,0.8,1.7,1.7,1.7h4l-9,28.9H1.7c-0.9,0-1.7,0.8-1.7,1.7S0.9,79.2,1.8,79.2z M21.6,66.6l-7,6.9
		l5-8.9L21.6,66.6z M21.3,61.5l3.6-6.4l2.7,5.6l-3.5,3.5L21.3,61.5z M17,75.8l7-6.9l7,6.9H17z M26.4,66.6l2.7-2.7l5,10.2L26.4,66.6z
		 M13.3,43.6v-2.5h21.4v2.5h-4.6H17.9H13.3z M19.1,46.9h9.8l7.5,24.2L27,51.9c-0.3-0.6-0.9-0.9-1.5-0.9h-1.2c-0.6,0-1.2,0.3-1.5,0.9
		L11.1,72.7L19.1,46.9z"/>
</g>
</svg>
