<?xml version="1.0" standalone="no"?>
<!DOCTYPE svg PUBLIC "-//W3C//DTD SVG 20010904//EN"
 "http://www.w3.org/TR/2001/REC-SVG-20010904/DTD/svg10.dtd">
<svg version="1.0" xmlns="http://www.w3.org/2000/svg"
 width="700.000000pt" height="700.000000pt" viewBox="0 0 700.000000 700.000000"
 preserveAspectRatio="xMidYMid meet">
<metadata>
Created by potrace 1.14, written by Peter Selinger 2001-2017
</metadata>
<g transform="translate(0.000000,700.000000) scale(0.100000,-0.100000)"
fill="#000000" stroke="none">
<path d="M0 3500 l0 -3500 3500 0 3500 0 0 3500 0 3500 -3500 0 -3500 0 0
-3500z m4231 2834 c79 -39 132 -117 151 -222 9 -49 7 -65 -10 -112 -112 -312
-131 -386 -139 -547 -16 -335 81 -533 482 -983 382 -428 504 -582 617 -772
456 -772 460 -1638 9 -2244 -308 -413 -764 -683 -1321 -780 -126 -22 -571 -31
-696 -15 -427 57 -825 226 -1149 492 -87 71 -256 244 -317 324 -218 287 -353
603 -419 980 -27 155 -36 446 -20 610 68 665 385 1280 783 1517 158 94 285 90
403 -13 62 -55 85 -116 85 -230 0 -154 63 -320 161 -421 54 -57 91 -63 132
-22 53 53 46 159 -30 454 -59 229 -71 297 -84 466 -23 293 25 556 144 788 127
248 334 443 630 595 106 54 325 141 405 161 52 12 129 2 183 -26z"/>
<path d="M3572 5464 c-76 -82 -136 -196 -163 -310 -41 -167 -20 -469 46 -694
53 -179 70 -293 69 -470 0 -151 -2 -172 -27 -245 -58 -175 -167 -300 -331
-380 -112 -55 -188 -75 -286 -75 -254 1 -472 156 -636 454 l-37 68 -24 -38
c-34 -57 -118 -260 -147 -356 -80 -264 -101 -636 -52 -903 23 -124 79 -301
132 -414 138 -294 396 -556 698 -708 411 -207 938 -246 1359 -102 323 111 606
334 762 599 268 459 192 1112 -193 1655 -52 74 -326 396 -472 555 -358 391
-532 683 -601 1013 -17 78 -22 139 -23 259 -1 87 -4 158 -8 158 -3 0 -33 -29
-66 -66z m364 -1750 c59 -28 98 -63 181 -166 205 -251 354 -532 419 -791 21
-83 27 -135 31 -272 6 -186 -5 -275 -54 -429 -45 -144 -97 -230 -198 -331
-138 -138 -290 -214 -505 -251 -126 -21 -334 -15 -440 14 -185 50 -347 161
-436 299 -69 107 -111 286 -100 434 15 224 115 399 395 691 169 178 213 232
256 318 42 83 53 126 64 243 10 102 30 154 78 198 83 78 200 94 309 43z"/>
<path d="M3835 2769 c-38 -50 -133 -157 -210 -237 -209 -219 -235 -257 -235
-339 0 -58 18 -86 68 -112 154 -79 419 -34 491 83 57 92 79 311 47 461 -22
101 -71 236 -85 234 -3 0 -37 -41 -76 -90z"/>
</g>
</svg>
